<svg version="1" xmlns="http://www.w3.org/2000/svg" width="2202.667" height="2202.667" viewBox="0 0 1652.000000 1652.000000"><path d="M341 .6c0 .2 1.5 3.8 3.4 8.1 5.9 13.5 37.8 88.3 38.1 89.3.1.3 1.3 3.1 2.8 6.4 1.5 3.2 2.7 6.2 2.7 6.5 0 .4.8 2.5 1.9 4.7 1 2.1 12.3 28.4 25.1 58.4 21.6 50.7 27.2 63.8 30.5 71.5.7 1.6 3.9 9.1 7 16.5s6.3 14.8 7 16.5c.7 1.6 3.4 7.9 6 14 2.5 6 5.5 12.9 6.6 15.2 1 2.4 1.9 4.5 1.9 4.8 0 .2 1.1 2.8 2.4 5.7 2.3 5.1 9.2 21.1 40.1 93.8 8 19 15.5 36.4 16.6 38.7 1 2.4 1.9 4.5 1.9 4.8 0 .2 1.4 3.4 3 7 1.7 3.6 3 6.8 3 7.1 0 .3 1.1 2.9 2.4 5.7 1.3 2.9 9.4 21.6 17.9 41.7 8.5 20.1 19.6 46.2 24.7 58 5 11.8 9.7 22.8 10.4 24.5.8 1.6 13.2 30.7 27.6 64.5 14.4 33.8 26.8 62.8 27.5 64.5.8 1.6 7.3 16.9 14.5 34 7.2 17 13.7 32.3 14.5 34 .7 1.6 4.1 9.5 7.5 17.5 3.4 8 6.3 14.7 6.5 14.9.3.2 256.8.5 262.7.2.9-.1 2-1.3 2.6-2.9 1-2.9 36.3-86 41.7-98.2 1.8-4.1 5-11.6 7-16.5 2.1-5 4.6-11 5.7-13.5 1.1-2.5 2.6-5.9 3.3-7.5.8-1.7 14.5-33.8 30.5-71.5 62-145.4 73.1-171.6 74.4-174.5.8-1.7 9.1-21.2 18.6-43.5 22.4-52.8 25-58.7 27-63.5 4.8-10.7 20-46.5 20-46.9 0-.3 1.3-3.3 2.9-6.8 1.6-3.5 4.1-9.2 5.6-12.8 3-7.2 30.9-72.7 33-77.5 1.1-2.3 35.7-83.7 59.7-140 1.6-3.9 3.6-8.4 4.3-10 1.3-2.8 13.5-31.8 16.8-39.6l1.5-3.6h-270.4l-9.8 25.1c-5.4 13.8-10.4 26.4-11.1 28.1-.7 1.6-2 4.8-2.8 7-1.3 3.6-16 41.2-33.9 86.5-3.8 9.6-8 20.2-9.2 23.5-4 10.4-23.8 60.9-25.1 64-.7 1.6-4.1 10.2-7.5 19-3.5 8.8-9.2 23.4-12.7 32.5-3.6 9.1-8.7 22.6-11.3 30-2.6 7.4-7.6 21.4-11 31-3.4 9.6-8.1 22.9-10.5 29.5-5 14.2-13.6 38.5-20.7 58-2.7 7.7-7.7 21.6-11 31-13.9 39.4-36.7 103.7-37.6 105.9-.7 1.6-1.1 1-2.6-3-1-2.7-2.1-5.8-2.6-6.9-.5-1.1-1.5-4-2.3-6.5-2-6-7.6-21.9-12.7-36-2.3-6.3-4.6-12.6-5-14-.5-1.4-2.8-8.1-5.3-15-2.4-6.9-10.6-29.8-18.1-51-7.5-21.2-14.8-41.4-16.1-45-1.3-3.6-4.8-13.5-7.8-22-3.1-8.5-10.1-28.1-15.6-43.5-10.3-29-14.3-39.9-16.6-45-.7-1.7-3.2-8-5.5-14-2.3-6.1-4.8-12.4-5.5-14-.6-1.7-2.2-5.7-3.5-9-1.2-3.3-2.8-7.4-3.5-9-.7-1.7-3.6-9.1-6.5-16.5-2.8-7.4-5.5-14.4-6-15.5-.5-1.1-6.8-17.1-14-35.5s-13.5-34.4-14-35.5c-.5-1.1-5-12.6-10-25.5s-9.5-24.4-10-25.5c-.5-1.1-2-4.9-3.4-8.5-9.5-24.8-28.8-73.5-29.2-74C610.8.5 341 .1 341 .6zM806.5 892c-11.8 1.8-13.8 2.2-21.7 4.6-4.6 1.3-9.1 2.6-10 2.9-6.4 1.5-24.9 11.4-34.3 18.3-8.2 6.1-22.3 20.7-27.7 28.9-14.9 22.2-22.6 48.3-23.2 78.4-.8 37.7 11.4 70.8 34.9 94.4 9.4 9.5 12 11.7 20.3 17.4 5.1 3.4 21.3 12.3 23.2 12.7.3 0 1.9.6 3.5 1.3 6.3 2.7 23.2 7.4 30.5 8.5 18.4 2.9 44.5 2.4 56.2-1 1-.3 3-.7 4.5-1 6.8-1.2 24.6-7.9 33.3-12.6 5.2-2.7 9.7-5.3 10-5.7.3-.3 2.5-2 5-3.6 6.9-4.6 19.5-17.1 25.9-25.5 12.6-16.7 21.9-40.1 24.6-61.6.4-2.7.9-5.7 1.1-6.7.7-2.3.7-33.4 0-34.5-.3-.5-.8-3.3-1.1-6.3-.8-6.9-4.1-19.6-7.3-27.9-14.8-37.9-48-66.2-90.2-77-16.8-4.3-43.1-6.1-57.5-4zM643.6 1165.7c-1 2.7-2.4 6.1-3.1 7.8-.8 1.6-2.3 5.5-3.5 8.5-1.1 3-2.7 6.8-3.5 8.5-.7 1.6-3.2 7.7-5.5 13.5s-4.8 11.8-5.5 13.5c-.8 1.6-3.5 8.2-6 14.5-2.6 6.3-6 14.9-7.7 19-1.6 4.1-3.6 8.8-4.3 10.5-.8 1.6-4.4 10.4-8 19.5-5.9 14.5-15 36.6-17.4 42.5-.5 1.1-1.7 4-2.7 6.5-.9 2.5-2.5 6.3-3.5 8.5-.9 2.2-9.6 23.6-19.4 47.5-9.7 23.9-18.3 44.8-19 46.5-1.2 2.9-14 34.2-32.2 78.5-4.6 11.3-8.8 21.4-9.3 22.5-.5 1.1-1.9 4.5-3 7.5s-2.5 6.4-3 7.5c-2.9 6.4-5 11.9-4.7 12.2.2.2 26.9 11.2 59.3 24.4s60.3 24.6 61.9 25.4c1.7.7 6.6 2.8 11 4.5 4.4 1.7 9.4 3.7 11 4.5 1.7.7 6.6 2.7 11 4.5 4.4 1.8 8.9 3.6 10 4.1 1.1.5 14.6 6 30 12.3l27.9 11.5 1.4-3.2c.7-1.8 4.7-11.5 8.9-21.7 4.1-10.2 8.5-21 9.8-24 1.3-3 3.3-8 4.5-11 1.2-3 2.8-6.9 3.5-8.5.8-1.7 3.9-9.3 7-17 12.4-30.7 18.8-46.1 20-49 .8-1.7 2.4-5.5 3.5-8.5 1.2-3 2.8-6.9 3.5-8.5.7-1.7 6.8-16.5 13.5-33s12.8-31.4 13.5-33c.7-1.7 3.2-7.7 5.6-13.5 2.3-5.8 6.8-16.8 9.9-24.5 3.2-7.7 12.4-30.2 20.4-50 8.1-19.8 15.1-36.9 15.6-38 8.5-19.5 22.9-56 22.2-56.5-.4-.4-4.3-2.1-8.7-3.9-16.3-6.6-67-27.4-100.5-41.1-19-7.8-37.6-15.5-41.5-17-3.8-1.5-14.9-6-24.5-9.9-13.7-5.7-38.2-15.7-45.5-18.7-.5-.2-1.8 1.7-2.9 4.3z"/></svg>